<?xml version="1.0" encoding="utf-8"?>
<svg version="1.1" xmlns:xlink="http://www.w3.org/1999/xlink" width="26px" height="26px" xmlns="http://www.w3.org/2000/svg">
  <g transform="matrix(1 0 0 1 -660 -8 )">
    <path d="M 0.5217391304347826 20  L 25.47826086956522 20  L 25.985507246376812 24.969866071428573  C 26.014492753623188 25.24069940476191  25.93719806763285 25.482514880952383  25.753623188405797 25.6953125  C 25.570048309178745 25.8984375  25.338164251207733 26  25.057971014492754 26  L 0.9420289855072465 26  C 0.6618357487922706 26  0.42995169082125606 25.8984375  0.2463768115942029 25.6953125  C 0.06280193236714976 25.482514880952383  -0.014492753623188406 25.24069940476191  0.014492753623188406 24.969866071428573  L 0.5217391304347826 20  Z M 23.82608695652174 7.66796875  C 24 7.827566964285715  24.101449275362317 8.0234375  24.130434782608695 8.255580357142856  L 25.3768115942029 19  L 0.6231884057971014 19  L 1.8695652173913042 8.255580357142856  C 1.8985507246376812 8.0234375  2 7.827566964285715  2.1739130434782608 7.66796875  C 2.3478260869565215 7.508370535714285  2.555555555555556 7.428571428571428  2.7971014492753623 7.428571428571428  L 6.507246376811595 7.428571428571428  L 6.507246376811595 9.285714285714285  C 6.507246376811595 9.798363095238093  6.688405797101448 10.236049107142856  7.050724637681159 10.598772321428571  C 7.413043478260869 10.961495535714285  7.850241545893722 11.142857142857144  8.362318840579709 11.142857142857144  C 8.874396135265702 11.142857142857144  9.31159420289855 10.961495535714285  9.67391304347826 10.598772321428571  C 10.03623188405797 10.236049107142856  10.217391304347826 9.798363095238093  10.217391304347826 9.285714285714285  L 10.217391304347826 7.428571428571428  L 15.782608695652176 7.428571428571428  L 15.782608695652176 9.285714285714285  C 15.782608695652176 9.798363095238093  15.963768115942031 10.236049107142856  16.32608695652174 10.598772321428571  C 16.68840579710145 10.961495535714285  17.125603864734302 11.142857142857144  17.63768115942029 11.142857142857144  C 18.149758454106284 11.142857142857144  18.586956521739133 10.961495535714285  18.949275362318843 10.598772321428571  C 19.31159420289855 10.236049107142856  19.492753623188406 9.798363095238093  19.492753623188406 9.285714285714285  L 19.492753623188406 7.428571428571428  L 23.20289855072464 7.428571428571428  C 23.444444444444446 7.428571428571428  23.652173913043477 7.508370535714285  23.82608695652174 7.66796875  Z M 16.934782608695652 1.6322544642857155  C 18.021739130434785 2.7204241071428563  18.565217391304348 4.033482142857144  18.565217391304348 5.571428571428572  L 18.565217391304348 9.285714285714285  C 18.565217391304348 9.53720238095238  18.47342995169082 9.754836309523808  18.28985507246377 9.938616071428571  C 18.106280193236717 10.122395833333332  17.888888888888893 10.214285714285715  17.63768115942029 10.214285714285715  C 17.386473429951693 10.214285714285715  17.169082125603865 10.122395833333332  16.985507246376812 9.938616071428571  C 16.80193236714976 9.754836309523808  16.710144927536234 9.53720238095238  16.710144927536234 9.285714285714285  L 16.710144927536234 5.571428571428572  C 16.710144927536234 4.5461309523809526  16.347826086956523 3.670758928571428  15.623188405797102 2.9453125  C 14.898550724637682 2.219866071428572  14.024154589371982 1.8571428571428563  13 1.8571428571428563  C 11.97584541062802 1.8571428571428563  11.101449275362318 2.219866071428572  10.376811594202898 2.9453125  C 9.652173913043477 3.670758928571428  9.289855072463768 4.5461309523809526  9.289855072463768 5.571428571428572  L 9.289855072463768 9.285714285714285  C 9.289855072463768 9.53720238095238  9.198067632850242 9.754836309523808  9.014492753623188 9.938616071428571  C 8.830917874396135 10.122395833333332  8.61352657004831 10.214285714285715  8.362318840579709 10.214285714285715  C 8.111111111111112 10.214285714285715  7.893719806763286 10.122395833333332  7.710144927536232 9.938616071428571  C 7.526570048309178 9.754836309523808  7.434782608695651 9.53720238095238  7.434782608695651 9.285714285714285  L 7.434782608695651 5.571428571428572  C 7.434782608695651 4.033482142857144  7.978260869565218 2.7204241071428563  9.065217391304348 1.6322544642857155  C 10.152173913043478 0.5440848214285718  11.46376811594203 0  13 0  C 14.53623188405797 0  15.847826086956522 0.5440848214285718  16.934782608695652 1.6322544642857155  Z " fill-rule="nonzero" fill="#7c8791" stroke="none" transform="matrix(1 0 0 1 660 8 )" />
  </g>
</svg>