<svg version="1.1" xmlns:xlink="http://www.w3.org/1999/xlink" width="26px" height="26px" xmlns="http://www.w3.org/2000/svg">
  <g transform="matrix(1 0 0 1 -614 -11 )">
    <path d="M 25.416015625 15.327473958333336  C 25.523220486111114 15.434678819444445  25.576822916666668 15.561631944444445  25.576822916666668 15.708333333333336  C 25.576822916666668 15.764756944444445  25.571180555555557 15.80425347222222  25.559895833333332 15.826822916666664  C 24.837673611111114 18.85112847222222  23.325520833333332 21.302734375  21.0234375 23.181640625  C 18.721354166666668 25.060546875  16.024305555555557 26  12.932291666666666 26  C 11.284722222222223 26  9.690755208333334 25.68967013888889  8.150390625 25.069010416666668  C 6.610026041666666 24.448350694444443  5.236111111111112 23.5625  4.028645833333333 22.411458333333332  L 1.8450520833333335 24.595052083333332  C 1.6306423611111112 24.809461805555557  1.3767361111111112 24.916666666666668  1.0833333333333333 24.916666666666668  C 0.7899305555555556 24.916666666666668  0.5360243055555556 24.809461805555557  0.3216145833333333 24.595052083333332  C 0.10720486111111112 24.38064236111111  0 24.12673611111111  0 23.833333333333332  L 0 16.25  C 0 15.95659722222222  0.10720486111111112 15.70269097222222  0.3216145833333333 15.48828125  C 0.5360243055555556 15.273871527777775  0.7899305555555556 15.166666666666664  1.0833333333333333 15.166666666666664  L 8.666666666666666 15.166666666666664  C 8.960069444444445 15.166666666666664  9.213975694444445 15.273871527777775  9.428385416666666 15.48828125  C 9.64279513888889 15.70269097222222  9.75 15.95659722222222  9.75 16.25  C 9.75 16.543402777777775  9.64279513888889 16.797309027777775  9.428385416666666 17.01171875  L 7.109375 19.330729166666664  C 7.910590277777779 20.075520833333332  8.819010416666666 20.651041666666668  9.834635416666666 21.057291666666668  C 10.850260416666666 21.463541666666668  11.905381944444445 21.666666666666668  13 21.666666666666668  C 14.512152777777777 21.666666666666668  15.922743055555557 21.299913194444443  17.231770833333332 20.56640625  C 18.540798611111114 19.832899305555554  19.59027777777778 18.822916666666664  20.380208333333332 17.536458333333336  C 20.50434027777778 17.344618055555554  20.803385416666668 16.684461805555554  21.27734375 15.555989583333336  C 21.36762152777778 15.29644097222222  21.536892361111114 15.166666666666664  21.78515625 15.166666666666664  L 25.03515625 15.166666666666664  C 25.18185763888889 15.166666666666664  25.30881076388889 15.22026909722222  25.416015625 15.327473958333336  Z M 25.678385416666668 1.4049479166666676  C 25.892795138888886 1.6193576388888873  26 1.8732638888888873  26 2.166666666666668  L 26 9.75  C 26 10.043402777777777  25.892795138888886 10.297309027777777  25.678385416666668 10.51171875  C 25.463975694444446 10.726128472222223  25.210069444444446 10.833333333333332  24.916666666666668 10.833333333333332  L 17.333333333333332 10.833333333333332  C 17.039930555555557 10.833333333333332  16.786024305555557 10.726128472222223  16.571614583333332 10.51171875  C 16.357204861111114 10.297309027777777  16.250000000000004 10.043402777777777  16.25 9.75  C 16.250000000000004 9.45659722222222  16.357204861111114 9.20269097222222  16.571614583333332 8.98828125  L 18.907552083333332 6.65234375  C 17.237413194444446 5.106336805555552  15.268229166666668 4.333333333333332  13 4.333333333333332  C 11.487847222222223 4.333333333333332  10.077256944444445 4.700086805555552  8.768229166666666 5.43359375  C 7.45920138888889 6.167100694444442  6.409722222222223 7.177083333333332  5.619791666666667 8.463541666666668  C 5.495659722222222 8.655381944444443  5.196614583333333 9.315538194444443  4.72265625 10.444010416666668  C 4.632378472222222 10.703559027777777  4.463107638888889 10.833333333333332  4.21484375 10.833333333333332  L 0.8463541666666667 10.833333333333332  C 0.6996527777777777 10.833333333333332  0.5726996527777778 10.779730902777777  0.46549479166666663 10.672526041666668  C 0.3582899305555556 10.565321180555555  0.3046875 10.438368055555555  0.3046875 10.291666666666668  L 0.3046875 10.173177083333332  C 1.0381944444444446 7.148871527777778  2.5616319444444446 4.697265625  4.875 2.818359375  C 7.188368055555556 0.939453125  9.89670138888889 0  13 0  C 14.647569444444445 0  16.25 0.31315104166666763  17.807291666666668 0.939453125  C 19.364583333333332 1.5657552083333324  20.746961805555557 2.4487847222222197  21.954427083333332 3.588541666666668  L 24.154947916666668 1.4049479166666676  C 24.36935763888889 1.1905381944444422  24.62326388888889 1.0833333333333324  24.916666666666668 1.0833333333333324  C 25.210069444444446 1.0833333333333324  25.463975694444446 1.1905381944444422  25.678385416666668 1.4049479166666676  Z " fill-rule="nonzero" fill="#7c8791" stroke="none" transform="matrix(1 0 0 1 614 11 )" />
  </g>
</svg>