<svg version="1.1" xmlns:xlink="http://www.w3.org/1999/xlink" width="50px" height="50px" xmlns="http://www.w3.org/2000/svg">
  <defs>
    <filter x="1864px" y="5px" width="50px" height="50px" filterUnits="userSpaceOnUse" id="filter31">
      <feOffset dx="0" dy="0" in="SourceAlpha" result="shadowOffsetInner" />
      <feGaussianBlur stdDeviation="2.5" in="shadowOffsetInner" result="shadowGaussian" />
      <feComposite in2="shadowGaussian" operator="atop" in="SourceAlpha" result="shadowComposite" />
      <feColorMatrix type="matrix" values="0 0 0 0 0.8509803921568627  0 0 0 0 0.8313725490196078  0 0 0 0 0.7725490196078432  0 0 0 1 0  " in="shadowComposite" />
    </filter>
    <g id="widget32">
      <path d="M 27.946428571428573 35.189732142857146  C 30.401785714285715 33.88764880952381  32.418154761904766 32.12053571428571  33.995535714285715 29.888392857142854  C 33.668154761904766 27.581845238095237  33.017113095238095 25.66592261904762  32.042410714285715 24.140625  C 31.067708333333336 22.61532738095238  29.694940476190478 21.73363095238095  27.924107142857146 21.49553571428571  C 26.927083333333336 22.596726190476186  25.74032738095238 23.456101190476186  24.363839285714285 24.07366071428571  C 22.987351190476197 24.691220238095237  21.5327380952381 25  20 25  C 18.467261904761905 25  17.01264880952381 24.691220238095237  15.636160714285714 24.07366071428571  C 14.25967261904762 23.456101190476186  13.072916666666668 22.596726190476186  12.075892857142858 21.49553571428571  C 10.305059523809524 21.73363095238095  8.932291666666668 22.61532738095238  7.9575892857142865 24.140625  C 6.982886904761906 25.66592261904762  6.331845238095238 27.581845238095237  6.0044642857142865 29.888392857142854  C 7.581845238095238 32.12053571428571  9.598214285714286 33.88764880952381  12.053571428571427 35.189732142857146  C 14.508928571428573 36.491815476190474  17.1577380952381 37.142857142857146  20 37.142857142857146  C 22.842261904761905 37.142857142857146  25.491071428571427 36.491815476190474  27.946428571428573 35.189732142857146  Z M 26.060267857142854 20.345982142857146  C 27.734375 18.671875  28.571428571428573 16.651785714285715  28.571428571428573 14.285714285714285  C 28.571428571428573 11.919642857142856  27.734375 9.899553571428573  26.060267857142854 8.225446428571427  C 24.386160714285715 6.551339285714284  22.366071428571427 5.714285714285716  20 5.714285714285716  C 17.633928571428573 5.714285714285716  15.613839285714286 6.551339285714284  13.939732142857142 8.225446428571427  C 12.265625 9.899553571428573  11.428571428571427 11.919642857142856  11.428571428571427 14.285714285714285  C 11.428571428571427 16.651785714285715  12.265625 18.671875  13.939732142857142 20.345982142857146  C 15.613839285714286 22.02008928571429  17.633928571428573 22.857142857142854  20 22.857142857142854  C 22.366071428571427 22.857142857142854  24.386160714285715 22.02008928571429  26.060267857142854 20.345982142857146  Z M 38.41517857142857 12.232142857142856  C 39.4717261904762 14.702380952380949  40 17.291666666666664  40 20  C 40 22.70833333333333  39.4717261904762 25.293898809523803  38.41517857142857 27.756696428571427  C 37.358630952380956 30.219494047619047  35.94122023809525 32.34747023809524  34.16294642857143 34.140625  C 32.38467261904762 35.93377976190476  30.26041666666667 37.358630952380956  27.790178571428573 38.41517857142857  C 25.319940476190478 39.47172619047619  22.723214285714285 40  20 40  C 17.291666666666668 40  14.702380952380953 39.47172619047619  12.232142857142858 38.41517857142857  C 9.761904761904763 37.358630952380956  7.633928571428571 35.9375  5.8482142857142865 34.15178571428571  C 4.0625 32.36607142857143  2.6413690476190474 30.238095238095237  1.5848214285714284 27.767857142857146  C 0.5282738095238094 25.297619047619047  0 22.70833333333333  0 20  C 0 17.291666666666664  0.5282738095238094 14.702380952380949  1.5848214285714284 12.232142857142856  C 2.6413690476190474 9.76190476190476  4.0625 7.633928571428572  5.8482142857142865 5.848214285714284  C 7.633928571428571 4.0625  9.761904761904763 2.6413690476190466  12.232142857142858 1.584821428571428  C 14.702380952380953 0.5282738095238093  17.291666666666668 0  20 0  C 22.708333333333336 0  25.29761904761905 0.5282738095238093  27.767857142857146 1.584821428571428  C 30.23809523809524 2.6413690476190466  32.36607142857143 4.0625  34.151785714285715 5.848214285714284  C 35.93750000000001 7.633928571428572  37.358630952380956 9.76190476190476  38.41517857142857 12.232142857142856  Z " fill-rule="nonzero" fill="#ff6a00" stroke="none" transform="matrix(1 0 0 1 1869 10 )" />
    </g>
  </defs>
  <g transform="matrix(1 0 0 1 -1864 -5 )">
    <use xlink:href="#widget32" filter="url(#filter31)" />
    <use xlink:href="#widget32" />
  </g>
</svg>